<?xml version="1.0" encoding="utf-8"?>
<svg width="960" height="960" xmlns="http://www.w3.org/2000/svg">
  <g transform="matrix(3.350937, 0, 0, 3.138437, -32.73195, -223.252772)" style="">
    <g>
      <rect x="9.768" y="71.135" width="298.424" height="318.63" style="stroke: rgb(0, 0, 0); fill: rgb(250, 171, 120);"/>
    </g>
  </g>
  <g class="layer" display="inline" transform="matrix(1, 0, 0, 1, 21.119966, -68.704395)">
    <title>Layer 1</title>
    <path d="m588.88,371.52l0,-80l73.6,0q23.27,0 39.83,23.5t16.57,56.5l0,400q0,33 -16.57,56.5t-39.83,23.5l-282,0q-23.27,0 -39.83,-23.5t-16.57,-56.5l0,-16l56.4,0l0,16l282,0l0,-400l-73.6,0zm-71.6,-188q23.27,0 39.83,23.5t16.57,56.5l0,400q0,33 -16.57,56.5t-39.83,23.5l-282,0q-23.27,0 -39.83,-23.5t-16.57,-56.5l0,-400q0,-33 16.57,-56.5t39.83,-23.5l282,0zm0,80l-282,0l0,400l282,0l0,-400zm-141,200z" id="svg_1"/>
    <g id="svg_3">
      <rect display="none" fill-opacity="0.15" height="0" id="selectorRubberBand" stroke="#22C" stroke-width="0.5" transform="matrix(1 0 0 1 1065.6 1065.6)" width="0" x="314.26" y="899.23" fill="#22C"/>
      <g display="none" id="selectorGroup0">
        <path d="m197.56,202.71l601.4,0l0,743.48l-601.4,0z" id="selectedBox0" stroke="#22C" stroke-dasharray="5,5" fill="none"/>
        <g display="none">
          <circle cx="197.56" cy="202.71" id="selectorGrip_resize_nw" pointer-events="all" r="4" stroke-width="2" style="cursor:nw-resize" fill="#22C"/>
          <circle cx="498.26" cy="202.71" id="selectorGrip_resize_n" pointer-events="all" r="4" stroke-width="2" style="cursor:n-resize" fill="#22C"/>
          <circle cx="798.96" cy="202.71" id="selectorGrip_resize_ne" pointer-events="all" r="4" stroke-width="2" style="cursor:ne-resize" fill="#22C"/>
          <circle cx="798.96" cy="574.45" id="selectorGrip_resize_e" pointer-events="all" r="4" stroke-width="2" style="cursor:e-resize" fill="#22C"/>
          <circle cx="798.96" cy="946.19" id="selectorGrip_resize_se" pointer-events="all" r="4" stroke-width="2" style="cursor:se-resize" fill="#22C"/>
          <circle cx="498.26" cy="946.19" id="selectorGrip_resize_s" pointer-events="all" r="4" stroke-width="2" style="cursor:s-resize" fill="#22C"/>
          <circle cx="197.56" cy="946.19" id="selectorGrip_resize_sw" pointer-events="all" r="4" stroke-width="2" style="cursor:sw-resize" fill="#22C"/>
          <circle cx="197.56" cy="574.45" id="selectorGrip_resize_w" pointer-events="all" r="4" stroke-width="2" style="cursor:w-resize" fill="#22C"/>
          <line id="selectorGrip_rotateconnector" stroke="#22C" x1="498.26" x2="498.26" y1="202.71" y2="182.71"/>
          <circle cx="498.26" cy="182.71" id="selectorGrip_rotate" r="4" stroke="#22C" stroke-width="2" style="cursor:url(./images/rotate.svg) 12 12, auto;" fill="lime"/>
        </g>
      </g>
      <g id="pathpointgrip_container" transform="matrix(1 0 0 1 1065.6 1065.6)">
        <circle cursor="move" cx="283" cy="812" display="none" id="pathpointgrip_1" r="4" stroke="#00F" stroke-width="2" fill="#0FF"/>
        <path d="m-226.89,949.11c177,3 510,-137 509.89,-137.11" display="none" id="segline_1" stroke="#0FF" stroke-width="2" fill="none"/>
        <circle cursor="move" cx="470" cy="590" display="none" id="pathpointgrip_2" r="4" stroke="#00F" stroke-width="2" fill="#0FF"/>
        <path d="m283,812c-0.11,-0.11 187.11,-221.89 187,-222" display="none" id="segline_2" stroke="#0FF" stroke-width="2" fill="none"/>
        <circle cursor="move" cx="425" cy="514" display="none" id="pathpointgrip_3" r="4" stroke="#00F" stroke-width="2" fill="#0FF"/>
        <path d="m470,590c-0.11,-0.11 -44.89,-75.89 -45,-76" display="none" id="segline_3" stroke="#0FF" stroke-width="2" fill="none"/>
        <circle cursor="move" cx="606" cy="498" display="none" id="pathpointgrip_4" r="4" stroke="#00F" stroke-width="2" fill="#0FF"/>
        <path d="m425,514c-0.11,-0.11 181.11,-15.89 181,-16" display="none" id="segline_4" stroke="#0FF" stroke-width="2" fill="none"/>
        <circle cursor="move" cx="594" cy="648" display="none" id="pathpointgrip_5" r="4" stroke="#00F" stroke-width="2" fill="#0FF"/>
        <path d="m606,498c-0.11,-0.11 -11.89,150.11 -12,150" display="none" id="segline_5" stroke="#0FF" stroke-width="2" fill="none"/>
        <circle cursor="move" cx="520.11" cy="607.11" display="none" id="pathpointgrip_6" r="4" stroke="#00F" stroke-width="2" fill="#0FF"/>
        <path d="m594,648c-0.11,-0.11 -73.89,-40.89 -73.89,-40.89" display="none" id="segline_6" stroke="#0FF" stroke-width="2" fill="none"/>
        <circle cursor="move" cx="388" cy="867" display="none" id="pathpointgrip_7" r="4" stroke="#00F" stroke-width="2" fill="#0FF"/>
        <path d="m520.11,607.11c0,0 -132,260 -132.11,259.89" display="none" id="segline_7" stroke="#0FF" stroke-width="2" fill="none"/>
        <circle cursor="move" cx="8" cy="977" display="none" id="pathpointgrip_8" r="4" stroke="#00F" stroke-width="2" fill="#0FF"/>
        <path d="m388,867c-0.11,-0.11 -379.89,110.11 -380,110" display="none" id="segline_8" stroke="#0FF" stroke-width="2" fill="none"/>
        <circle cursor="move" cx="-202" cy="979" display="none" id="pathpointgrip_9" r="4" stroke="#00F" stroke-width="2" fill="#0FF"/>
        <path d="m8,977c-0.11,-0.11 -209.89,2.11 -210,2" display="none" id="segline_9" stroke="#0FF" stroke-width="2" fill="none"/>
        <circle cursor="move" cx="-226.89" cy="949.11" display="none" id="pathpointgrip_10" r="4" stroke="#0FF" stroke-width="2" fill="#0FF"/>
        <path d="m-202,979c-0.11,-0.11 -201.89,-32.89 -24.89,-29.89" display="none" id="segline_10" stroke="#0FF" stroke-width="2" fill="none"/>
        <circle cursor="move" cx="378.73" cy="813.63" display="none" id="pathpointgrip_11" r="4" stroke="#00F" stroke-width="2" fill="#0FF"/>
        <path d="m378.73,831.39l0,-17.76" display="none" id="segline_11" stroke="#0FF" stroke-width="2" fill="none"/>
        <circle cursor="move" cx="441.34" cy="813.63" display="none" id="pathpointgrip_12" r="4" stroke="#00F" stroke-width="2" fill="#0FF"/>
        <path d="m378.73,813.63l62.6,0" display="none" id="segline_12" stroke="#0FF" stroke-width="2" fill="none"/>
        <circle cursor="move" cx="441.34" cy="831.39" display="none" id="pathpointgrip_13" r="4" stroke="#00F" stroke-width="2" fill="#0FF"/>
        <path d="m441.34,813.63l0,17.76" display="none" id="segline_13" stroke="#0FF" stroke-width="2" fill="none"/>
        <circle cursor="move" cx="754.36" cy="831.39" display="none" id="pathpointgrip_14" r="4" stroke="#00F" stroke-width="2" fill="#0FF"/>
        <path d="m441.34,831.39l313.02,0" display="none" id="segline_14" stroke="#0FF" stroke-width="2" fill="none"/>
        <circle cursor="move" cx="754.36" cy="387.39" display="none" id="pathpointgrip_15" r="4" stroke="#00F" stroke-width="2" fill="#0FF"/>
        <path d="m754.36,831.39l0,-444" display="none" id="segline_15" stroke="#0FF" stroke-width="2" fill="none"/>
        <circle cursor="move" cx="672.66" cy="387.39" display="none" id="pathpointgrip_16" r="4" stroke="#00F" stroke-width="2" fill="#0FF"/>
        <path d="m754.36,387.39l-81.7,0" display="none" id="segline_16" stroke="#0FF" stroke-width="2" fill="none"/>
        <circle cursor="move" cx="637.4" cy="204.79" display="none" id="pathpointgrip_19" r="4" stroke="#00F" stroke-width="2" fill="#0FF"/>
        <path d="m593.18,178.71q25.82,0 44.21,26.08" display="none" id="segline_19" stroke="#0FF" stroke-width="2" fill="none"/>
        <circle cursor="move" cx="655.79" cy="267.51" display="none" id="pathpointgrip_20" r="4" stroke="#00F" stroke-width="2" fill="#0FF"/>
        <path d="m637.4,204.79t18.39,62.72" display="none" id="segline_20" stroke="#0FF" stroke-width="2" fill="none"/>
        <circle cursor="move" cx="655.79" cy="711.51" display="none" id="pathpointgrip_21" r="4" stroke="#00F" stroke-width="2" fill="#0FF"/>
        <path d="m655.79,267.51l0,444" display="none" id="segline_21" stroke="#0FF" stroke-width="2" fill="none"/>
        <circle cursor="move" cx="637.4" cy="774.22" display="none" id="pathpointgrip_22" r="4" stroke="#00F" stroke-width="2" fill="#0FF"/>
        <path d="m655.79,711.51q0,36.63 -18.39,62.72" display="none" id="segline_22" stroke="#0FF" stroke-width="2" fill="none"/>
        <circle cursor="move" cx="593.18" cy="800.31" display="none" id="pathpointgrip_23" r="4" stroke="#00F" stroke-width="2" fill="#0FF"/>
        <path d="m637.4,774.22t-44.21,26.08" display="none" id="segline_23" stroke="#0FF" stroke-width="2" fill="none"/>
        <circle cursor="move" cx="280.16" cy="800.31" display="none" id="pathpointgrip_24" r="4" stroke="#00F" stroke-width="2" fill="#0FF"/>
        <path d="m593.18,800.31l-313.02,0" display="none" id="segline_24" stroke="#0FF" stroke-width="2" fill="none"/>
        <circle cursor="move" cx="235.95" cy="774.22" display="none" id="pathpointgrip_25" r="4" stroke="#00F" stroke-width="2" fill="#0FF"/>
        <path d="m280.16,800.31q-25.82,0 -44.21,-26.08" display="none" id="segline_25" stroke="#0FF" stroke-width="2" fill="none"/>
        <circle cursor="move" cx="217.56" cy="711.51" display="none" id="pathpointgrip_26" r="4" stroke="#00F" stroke-width="2" fill="#0FF"/>
        <path d="m235.95,774.22t-18.39,-62.72" display="none" id="segline_26" stroke="#0FF" stroke-width="2" fill="none"/>
        <circle cursor="move" cx="217.56" cy="267.51" display="none" id="pathpointgrip_27" r="4" stroke="#00F" stroke-width="2" fill="#0FF"/>
        <path d="m217.56,711.51l0,-444" display="none" id="segline_27" stroke="#0FF" stroke-width="2" fill="none"/>
        <circle cursor="move" cx="235.95" cy="204.79" display="none" id="pathpointgrip_28" r="4" stroke="#00F" stroke-width="2" fill="#0FF"/>
        <path d="m217.56,267.51q0,-36.63 18.39,-62.71" display="none" id="segline_28" stroke="#0FF" stroke-width="2" fill="none"/>
        <circle cursor="move" cx="280.16" cy="178.71" display="none" id="pathpointgrip_29" r="4" stroke="#00F" stroke-width="2" fill="#0FF"/>
        <path d="m235.95,204.79t44.21,-26.09" display="none" id="segline_29" stroke="#0FF" stroke-width="2" fill="none"/>
        <circle cursor="move" cx="593.18" cy="178.71" display="none" id="pathpointgrip_30" r="4" stroke="#00F" stroke-width="2" fill="#0FF"/>
        <path d="m280.16,178.71l313.02,0" display="none" id="segline_30" stroke="#0FF" stroke-width="2" fill="none"/>
        <circle cursor="move" cx="280.16" cy="267.51" display="none" id="pathpointgrip_33" r="4" stroke="#00F" stroke-width="2" fill="#0FF"/>
        <path d="m593.18,267.51l-313.02,0" display="none" id="segline_33" stroke="#0FF" stroke-width="2" fill="none"/>
        <circle cursor="move" cx="280.16" cy="711.51" display="none" id="pathpointgrip_34" r="4" stroke="#00F" stroke-width="2" fill="#0FF"/>
        <path d="m280.16,267.51l0,444" display="none" id="segline_34" stroke="#0FF" stroke-width="2" fill="none"/>
        <circle cursor="move" cx="593.18" cy="711.51" display="none" id="pathpointgrip_35" r="4" stroke="#00F" stroke-width="2" fill="#0FF"/>
        <path d="m280.16,711.51l313.02,0" display="none" id="segline_35" stroke="#0FF" stroke-width="2" fill="none"/>
        <circle cursor="move" cx="593.18" cy="267.51" display="none" id="pathpointgrip_36" r="4" stroke="#00F" stroke-width="2" fill="#0FF"/>
        <path d="m593.18,711.51l0,-444" display="none" id="segline_36" stroke="#0FF" stroke-width="2" fill="none"/>
        <circle cursor="move" cx="158.11" cy="830.11" display="none" id="pathpointgrip_0" r="4" stroke="#00F" stroke-width="2" fill="#0FF"/>
        <circle cursor="move" cx="-49.89" cy="952.11" display="none" id="ctrlpointgrip_1c1" r="4" stroke="#55F" fill="#EEE"/>
        <circle cursor="move" cx="924.11" cy="482.11" display="none" id="ctrlpointgrip_0c2" r="4" stroke="#55F" fill="#0FF"/>
        <line display="none" id="ctrlLine_1" stroke="#555" x1="924.11" x2="924.11" y1="482.11" y2="482.11"/>
        <line display="none" id="ctrlLine_1c1" stroke="#555" x1="-49.89" x2="-226.89" y1="952.11" y2="949.11"/>
        <line display="none" id="ctrlLine_1c2" stroke="#555" x1="283.11" x2="283" y1="812.11" y2="812"/>
        <circle cursor="move" cx="283.11" cy="812.11" display="none" id="ctrlpointgrip_1c2" r="4" stroke="#55F" fill="#EEE"/>
        <line display="none" id="ctrlLine_2c1" stroke="#555" x1="282.89" x2="283" y1="811.89" y2="812"/>
        <circle cursor="move" cx="282.89" cy="811.89" display="none" id="ctrlpointgrip_2c1" r="4" stroke="#55F" fill="#EEE"/>
        <line display="none" id="ctrlLine_2c2" stroke="#555" x1="470.11" x2="470" y1="590.11" y2="590"/>
        <circle cursor="move" cx="470.11" cy="590.11" display="none" id="ctrlpointgrip_2c2" r="4" stroke="#55F" fill="#EEE"/>
        <line display="none" id="ctrlLine_3c1" stroke="#555" x1="469.89" x2="470" y1="589.89" y2="590"/>
        <circle cursor="move" cx="469.89" cy="589.89" display="none" id="ctrlpointgrip_3c1" r="4" stroke="#55F" fill="#EEE"/>
        <line display="none" id="ctrlLine_3c2" stroke="#555" x1="425.11" x2="425" y1="514.11" y2="514"/>
        <circle cursor="move" cx="425.11" cy="514.11" display="none" id="ctrlpointgrip_3c2" r="4" stroke="#55F" fill="#EEE"/>
        <line display="none" id="ctrlLine_4c1" stroke="#555" x1="424.89" x2="425" y1="513.89" y2="514"/>
        <circle cursor="move" cx="424.89" cy="513.89" display="none" id="ctrlpointgrip_4c1" r="4" stroke="#55F" fill="#EEE"/>
        <line display="none" id="ctrlLine_4c2" stroke="#555" x1="606.11" x2="606" y1="498.11" y2="498"/>
        <circle cursor="move" cx="606.11" cy="498.11" display="none" id="ctrlpointgrip_4c2" r="4" stroke="#55F" fill="#EEE"/>
        <line display="none" id="ctrlLine_5c1" stroke="#555" x1="605.89" x2="606" y1="497.89" y2="498"/>
        <circle cursor="move" cx="605.89" cy="497.89" display="none" id="ctrlpointgrip_5c1" r="4" stroke="#55F" fill="#EEE"/>
        <line display="none" id="ctrlLine_5c2" stroke="#555" x1="594.11" x2="594" y1="648.11" y2="648"/>
        <circle cursor="move" cx="594.11" cy="648.11" display="none" id="ctrlpointgrip_5c2" r="4" stroke="#55F" fill="#EEE"/>
        <line display="none" id="ctrlLine_6c1" stroke="#555" x1="593.89" x2="594" y1="647.89" y2="648"/>
        <circle cursor="move" cx="593.89" cy="647.89" display="none" id="ctrlpointgrip_6c1" r="4" stroke="#55F" fill="#EEE"/>
        <line display="none" id="ctrlLine_6c2" stroke="#555" x1="520.11" x2="520.11" y1="607.11" y2="607.11"/>
        <circle cursor="move" cx="520.11" cy="607.11" display="none" id="ctrlpointgrip_6c2" r="4" stroke="#55F" fill="#EEE"/>
        <line display="none" id="ctrlLine_7c1" stroke="#555" x1="520.11" x2="520.11" y1="607.11" y2="607.11"/>
        <circle cursor="move" cx="520.11" cy="607.11" display="none" id="ctrlpointgrip_7c1" r="4" stroke="#55F" fill="#EEE"/>
        <line display="none" id="ctrlLine_7c2" stroke="#555" x1="388.11" x2="388" y1="867.11" y2="867"/>
        <circle cursor="move" cx="388.11" cy="867.11" display="none" id="ctrlpointgrip_7c2" r="4" stroke="#55F" fill="#EEE"/>
        <line display="none" id="ctrlLine_8c1" stroke="#555" x1="387.89" x2="388" y1="866.89" y2="867"/>
        <circle cursor="move" cx="387.89" cy="866.89" display="none" id="ctrlpointgrip_8c1" r="4" stroke="#55F" fill="#EEE"/>
        <line display="none" id="ctrlLine_8c2" stroke="#555" x1="8.11" x2="8" y1="977.11" y2="977"/>
        <circle cursor="move" cx="8.11" cy="977.11" display="none" id="ctrlpointgrip_8c2" r="4" stroke="#55F" fill="#EEE"/>
        <line display="none" id="ctrlLine_9c1" stroke="#555" x1="7.89" x2="8" y1="976.89" y2="977"/>
        <circle cursor="move" cx="7.89" cy="976.89" display="none" id="ctrlpointgrip_9c1" r="4" stroke="#55F" fill="#EEE"/>
        <line display="none" id="ctrlLine_9c2" stroke="#555" x1="-201.89" x2="-202" y1="979.11" y2="979"/>
        <circle cursor="move" cx="-201.89" cy="979.11" display="none" id="ctrlpointgrip_9c2" r="4" stroke="#55F" fill="#EEE"/>
        <line display="none" id="ctrlLine_10c1" stroke="#555" x1="-202.11" x2="-202" y1="978.89" y2="979"/>
        <circle cursor="move" cx="-202.11" cy="978.89" display="none" id="ctrlpointgrip_10c1" r="4" stroke="#55F" fill="#0FF"/>
        <line display="none" id="ctrlLine_10c2" stroke="#555" x1="-403.89" x2="-226.89" y1="946.11" y2="949.11"/>
        <circle cursor="move" cx="-403.89" cy="946.11" display="none" id="ctrlpointgrip_10c2" r="4" stroke="#55F" fill="#0FF"/>
      </g>
    </g>
  </g>
  <path d="M 674.519 242.31 C 593.566 274.314 537.13 355.377 488.458 428.793 C 435.51 508.658 412.423 613.948 412.423 704.626 C 412.423 765.264 423.895 822.781 446.837 877.1 C 469.782 931.459 502.286 979.257 544.349 1020.62 L 412.423 1020.62 L 412.423 1100.62 L 680.099 1100.62 L 680.099 820.622 L 603.62 820.622 L 603.62 968.617 C 567.292 934.617 539.073 894.78 518.996 849.102 C 498.919 803.463 488.902 755.264 488.902 704.626 C 488.902 636.628 519.365 533.229 545.216 469.589 C 571.068 405.948 674.519 242.31 674.519 242.31 Z" style="stroke-width: 0.025; fill: rgb(255, 246, 115); transform-box: fill-box; transform-origin: 50% 50%;" transform="matrix(-0.559193, -0.829038, 0.829038, -0.559193, -0.000074, 0.000048)"/>
</svg>